# xmcd
#
# Track frame offsets:
#       150
#       13650
#       33245
#       44720
#       61955
#       76067
#       93120
#       107522
#       120640
#       131160
#       150120
#       163855
#       175542
#       188120
#
# Disc length: 2709 seconds
#
# Revision: 0
# Processed by: cddbd v1.4PL0 Copyright (c) Steve Scherf et al.
# Submitted via: WhereIsIt 3.26
#
DISCID=a20a930e
DTITLE=Timi Yuro - Sings Willie Nelson
DYEAR=1900
DGENRE=
TTITLE0=did I ever love you (duet with willie nelson)
TTITLE1=crazy
TTITLE2=there's a way (duet with willie nelson)
TTITLE3=will you remember mine
TTITLE4=permanently lonely
TTITLE5=touch me
TTITLE6=my own peculiar way
TTITLE7=you took my happy away
TTITLE8=I never cared for you
TTITLE9=once alone
TTITLE10=opportunity to cry
TTITLE11=on the road again
TTITLE12=you
TTITLE13=If you don't know by now
EXTD=
EXTT0=
EXTT1=
EXTT2=
EXTT3=
EXTT4=
EXTT5=
EXTT6=
EXTT7=
EXTT8=
EXTT9=
EXTT10=
EXTT11=
EXTT12=
EXTT13=
PLAYORDER=
